HIERARCHY
ROOT hips
{
	OFFSET 0.000000 104.274902 0.000000
	CHANNELS 6 Xposition Yposition Zposition Xrotation Yrotation Zrotation
	JOINT spine
	{
		OFFSET 0.000000 10.181549 0.131524
		CHANNELS 6 Xposition Yposition Zposition Xrotation Yrotation Zrotation
		JOINT chest
		{
			OFFSET 0.000000 9.893990 -1.470706
			CHANNELS 3 Xrotation Yrotation Zrotation
			JOINT upperChest
			{
				OFFSET 0.000000 9.220787 -1.370637
				CHANNELS 3 Xrotation Yrotation Zrotation
				JOINT neck
				{
					OFFSET 0.000000 16.740372 -2.049022
					CHANNELS 6 Xposition Yposition Zposition Xrotation Yrotation Zrotation
					JOINT head
					{
						OFFSET 0.000000 9.617859 1.684976
						CHANNELS 6 Xposition Yposition Zposition Xrotation Yrotation Zrotation
						JOINT headEnd
						{
							OFFSET 0.000000 22.037384 7.501072
							CHANNELS 6 Xposition Yposition Zposition Xrotation Yrotation Zrotation
							End Site
							{
								OFFSET 0.000000 23.106567 -2.828246
							}
						}
					}
				}
				JOINT rightShoulder
				{
					OFFSET -4.570000 11.014877 -2.160840
					CHANNELS 6 Xposition Yposition Zposition Xrotation Yrotation Zrotation
					JOINT rightUpperArm
					{
						OFFSET -10.592867 -0.524796 -2.232105
						CHANNELS 3 Xrotation Yrotation Zrotation
						JOINT rightLowerArm
						{
							OFFSET -27.841497 0.000000 -0.000002
							CHANNELS 3 Xrotation Yrotation Zrotation
							JOINT rightHand
							{
								OFFSET -28.328812 0.000000 -0.000001
								CHANNELS 3 Xrotation Yrotation Zrotation
								JOINT rightThumbProximal
								{
									OFFSET -2.464798 -1.573990 2.681911
									CHANNELS 6 Xposition Yposition Zposition Xrotation Yrotation Zrotation
									JOINT rightThumbIntermediate
									{
										OFFSET -3.244781 -1.873383 1.873376
										CHANNELS 3 Xrotation Yrotation Zrotation
										JOINT rightThumbDistal
										{
											OFFSET -2.646263 -1.527817 1.527818
											CHANNELS 6 Xposition Yposition Zposition Xrotation Yrotation Zrotation
											JOINT rightHandThumb4
											{
												OFFSET -1.994591 -1.151581 1.151575
												CHANNELS 6 Xposition Yposition Zposition Xrotation Yrotation Zrotation
												End Site
												{
													OFFSET -1.860176 -1.142715 1.365483
												}
											}
										}
									}
								}
								JOINT rightIndexProximal
								{
									OFFSET -9.108299 -0.517883 2.259803
									CHANNELS 6 Xposition Yposition Zposition Xrotation Yrotation Zrotation
									JOINT rightIndexIntermediate
									{
										OFFSET -3.699997 0.000000 0.000000
										CHANNELS 3 Xrotation Yrotation Zrotation
										JOINT rightIndexDistal
										{
											OFFSET -2.850006 0.000000 0.000000
											CHANNELS 3 Xrotation Yrotation Zrotation
											JOINT rightHandIndex4
											{
												OFFSET -2.772194 0.000000 0.000000
												CHANNELS 3 Xrotation Yrotation Zrotation
												End Site
												{
													OFFSET -2.772202 0.000000 -0.000484
												}
											}
										}
									}
								}
								JOINT rightMiddleProximal
								{
									OFFSET -9.532501 0.000000 -0.000000
									CHANNELS 6 Xposition Yposition Zposition Xrotation Yrotation Zrotation
									JOINT rightMiddleIntermediate
									{
										OFFSET -3.699997 0.000000 0.000000
										CHANNELS 3 Xrotation Yrotation Zrotation
										JOINT rightMiddleDistal
										{
											OFFSET -2.949997 0.000000 0.000000
											CHANNELS 3 Xrotation Yrotation Zrotation
											JOINT rightHandMiddle4
											{
												OFFSET -2.946594 0.000000 0.000000
												CHANNELS 3 Xrotation Yrotation Zrotation
												End Site
												{
													OFFSET -2.946602 0.000000 -0.000982
												}
											}
										}
									}
								}
								JOINT rightRingProximal
								{
									OFFSET -9.103600 -0.043106 -1.865100
									CHANNELS 6 Xposition Yposition Zposition Xrotation Yrotation Zrotation
									JOINT rightRingIntermediate
									{
										OFFSET -3.379303 0.000000 0.000000
										CHANNELS 3 Xrotation Yrotation Zrotation
										JOINT rightRingDistal
										{
											OFFSET -2.889694 0.000000 0.000000
											CHANNELS 3 Xrotation Yrotation Zrotation
											JOINT rightHandRing4
											{
												OFFSET -2.638802 0.000000 0.000000
												CHANNELS 3 Xrotation Yrotation Zrotation
												End Site
												{
													OFFSET -2.638802 0.000000 0.004218
												}
											}
										}
									}
								}
								JOINT rightLittleProximal
								{
									OFFSET -8.076698 -0.486725 -3.806299
									CHANNELS 6 Xposition Yposition Zposition Xrotation Yrotation Zrotation
									JOINT rightLittleIntermediate
									{
										OFFSET -3.600006 0.000000 0.000000
										CHANNELS 3 Xrotation Yrotation Zrotation
										JOINT rightLittleDistal
										{
											OFFSET -2.099998 0.000000 0.000000
											CHANNELS 3 Xrotation Yrotation Zrotation
											JOINT rightHandPinky4
											{
												OFFSET -2.115791 0.000000 0.000000
												CHANNELS 3 Xrotation Yrotation Zrotation
												End Site
												{
													OFFSET -2.115799 0.000000 0.000174
												}
											}
										}
									}
								}
							}
						}
					}
				}
				JOINT leftShoulder
				{
					OFFSET 4.570400 11.014679 -2.160816
					CHANNELS 6 Xposition Yposition Zposition Xrotation Yrotation Zrotation
					JOINT leftUpperArm
					{
						OFFSET 10.592373 -0.524597 -2.232116
						CHANNELS 3 Xrotation Yrotation Zrotation
						JOINT leftLowerArm
						{
							OFFSET 27.841488 0.000000 0.000001
							CHANNELS 3 Xrotation Yrotation Zrotation
							JOINT leftHand
							{
								OFFSET 28.328808 0.000000 -0.000000
								CHANNELS 3 Xrotation Yrotation Zrotation
								JOINT leftThumbProximal
								{
									OFFSET 2.466103 -1.576202 2.681698
									CHANNELS 6 Xposition Yposition Zposition Xrotation Yrotation Zrotation
									JOINT leftThumbIntermediate
									{
										OFFSET 3.243317 -1.872528 1.872530
										CHANNELS 3 Xrotation Yrotation Zrotation
										JOINT leftThumbDistal
										{
											OFFSET 2.647881 -1.528763 1.528754
											CHANNELS 6 Xposition Yposition Zposition Xrotation Yrotation Zrotation
											JOINT leftHandThumb4
											{
												OFFSET 1.998924 -1.154083 1.154080
												CHANNELS 6 Xposition Yposition Zposition Xrotation Yrotation Zrotation
												End Site
												{
													OFFSET 1.884041 -1.149155 1.337651
												}
											}
										}
									}
								}
								JOINT leftIndexProximal
								{
									OFFSET 9.109299 -0.518005 2.259900
									CHANNELS 6 Xposition Yposition Zposition Xrotation Yrotation Zrotation
									JOINT leftIndexIntermediate
									{
										OFFSET 3.699997 0.000000 0.000000
										CHANNELS 3 Xrotation Yrotation Zrotation
										JOINT leftIndexDistal
										{
											OFFSET 2.850006 0.000000 0.000000
											CHANNELS 3 Xrotation Yrotation Zrotation
											JOINT leftHandIndex4
											{
												OFFSET 2.774895 0.000000 0.000000
												CHANNELS 3 Xrotation Yrotation Zrotation
												End Site
												{
													OFFSET 2.774902 0.000000 -0.000072
												}
											}
										}
									}
								}
								JOINT leftMiddleProximal
								{
									OFFSET 9.533401 0.000000 0.000000
									CHANNELS 6 Xposition Yposition Zposition Xrotation Yrotation Zrotation
									JOINT leftMiddleIntermediate
									{
										OFFSET 3.699997 0.000000 0.000000
										CHANNELS 3 Xrotation Yrotation Zrotation
										JOINT leftMiddleDistal
										{
											OFFSET 2.949997 0.000000 0.000000
											CHANNELS 3 Xrotation Yrotation Zrotation
											JOINT leftHandMiddle4
											{
												OFFSET 2.952896 0.000000 0.000000
												CHANNELS 3 Xrotation Yrotation Zrotation
												End Site
												{
													OFFSET 2.952904 0.000000 0.000165
												}
											}
										}
									}
								}
								JOINT leftRingProximal
								{
									OFFSET 9.104500 -0.042999 -1.865101
									CHANNELS 6 Xposition Yposition Zposition Xrotation Yrotation Zrotation
									JOINT leftRingIntermediate
									{
										OFFSET 3.149994 0.000000 0.000000
										CHANNELS 3 Xrotation Yrotation Zrotation
										JOINT leftRingDistal
										{
											OFFSET 2.950005 0.000000 0.000000
											CHANNELS 3 Xrotation Yrotation Zrotation
											JOINT leftHandRing4
											{
												OFFSET 2.644302 0.000000 0.000000
												CHANNELS 3 Xrotation Yrotation Zrotation
												End Site
												{
													OFFSET 2.644302 0.000000 0.000083
												}
											}
										}
									}
								}
								JOINT leftLittleProximal
								{
									OFFSET 8.077805 -0.486893 -3.806302
									CHANNELS 6 Xposition Yposition Zposition Xrotation Yrotation Zrotation
									JOINT leftLittleIntermediate
									{
										OFFSET 3.600006 0.000000 0.000000
										CHANNELS 3 Xrotation Yrotation Zrotation
										JOINT leftLittleDistal
										{
											OFFSET 2.099998 0.000000 0.000000
											CHANNELS 3 Xrotation Yrotation Zrotation
											JOINT leftHandPinky4
											{
												OFFSET 2.125496 0.000000 0.000000
												CHANNELS 3 Xrotation Yrotation Zrotation
												End Site
												{
													OFFSET 2.125504 0.000000 -0.001254
												}
											}
										}
									}
								}
							}
						}
					}
				}
			}
		}
	}
	JOINT rightUpperLeg
	{
		OFFSET -8.207800 -6.751701 -1.599544
		CHANNELS 6 Xposition Yposition Zposition Xrotation Yrotation Zrotation
		JOINT rightLowerLeg
		{
			OFFSET 0.000004 -44.370152 0.345934
			CHANNELS 3 Xrotation Yrotation Zrotation
			JOINT rightFoot
			{
				OFFSET 0.000004 -44.423664 -3.043535
				CHANNELS 3 Xrotation Yrotation Zrotation
				JOINT rightToes
				{
					OFFSET 0.000001 -8.728691 10.710592
					CHANNELS 3 Xrotation Yrotation Zrotation
					JOINT rightToesEnd
					{
						OFFSET 0.000000 -0.000665 9.278101
						CHANNELS 3 Xrotation Yrotation Zrotation
						End Site
						{
							OFFSET 0.000000 -0.000665 9.278103
						}
					}
				}
			}
		}
	}
	JOINT leftUpperLeg
	{
		OFFSET 8.207800 -6.751701 -1.599544
		CHANNELS 6 Xposition Yposition Zposition Xrotation Yrotation Zrotation
		JOINT leftLowerLeg
		{
			OFFSET 0.000004 -44.370037 0.346940
			CHANNELS 3 Xrotation Yrotation Zrotation
			JOINT leftFoot
			{
				OFFSET 0.000004 -44.423611 -3.044388
				CHANNELS 3 Xrotation Yrotation Zrotation
				JOINT leftToes
				{
					OFFSET 0.000001 -8.728690 10.710592
					CHANNELS 3 Xrotation Yrotation Zrotation
					JOINT leftToesEnd
					{
						OFFSET 0.000000 -0.000680 9.278101
						CHANNELS 3 Xrotation Yrotation Zrotation
						End Site
						{
							OFFSET 0.000000 -0.000680 9.278101
						}
					}
				}
			}
		}
	}
}
MOTION
Frames: 4
Frame Time: 0.033333
-28.970379 87.684868 -3.094273 -11.722069 11.665178 -11.644229 -0.000001 10.181556 0.131524 8.480708 11.404656 2.664988 10.276776 1.662669 1.230543 10.242985 1.683696 1.418595 -0.000001 16.740358 -2.049019 -5.336093 -5.033803 5.854790 0.000000 9.617836 1.684978 -15.097740 -19.314322 6.115014 -0.000001 22.037384 7.501079 -0.000001 0.000000 0.000000 -4.570000 11.014868 -2.160840 1.639134 14.485383 4.203271 -12.166497 29.762454 42.156768 -0.000002 18.306710 0.000014 47.557880 13.858974 -1.909785 -2.464785 -1.573982 2.681909 4.127518 -12.597516 -13.756370 5.297620 -15.966691 -0.731478 -2.646279 -1.527802 1.527817 -0.694108 -6.223725 -2.766792 -1.994613 -1.151582 1.151574 0.000002 -0.000000 0.000003 -9.108287 -0.517884 2.259800 1.362828 -4.139516 36.432571 0.330835 -2.123198 17.710836 0.090564 -1.120881 9.238759 0.000000 -0.000002 0.000001 -9.532499 0.000005 -0.000002 0.745920 -3.138104 26.735712 0.257203 -1.877248 15.601615 0.115879 -1.266634 10.453155 0.000006 -0.000002 -0.000000 -9.103597 -0.043103 -1.865106 0.228412 -1.770986 14.697331 0.173770 -1.547837 12.810553 0.154715 -1.461566 12.085099 0.000004 -0.000002 0.000000 -8.076682 -0.486717 -3.806302 0.027491 -0.619067 5.086677 0.118491 -1.280747 10.570969 0.189646 -1.616091 13.386010 -0.000003 0.000002 -0.000000 4.570401 11.014691 -2.160814 1.565320 -10.862723 5.210855 21.822369 -38.518626 -8.866344 0.000010 -104.109657 0.000025 -71.878083 -19.694796 23.332836 2.466094 -1.576198 2.681702 0.908718 21.914908 -3.577513 4.849081 19.284064 1.571070 2.647883 -1.528746 1.528751 0.295662 11.520623 3.479273 1.998922 -1.154085 1.154086 -0.000000 0.000001 -0.000002 9.109297 -0.517998 2.259900 0.161333 -1.484723 12.402127 0.081696 1.059868 -8.818180 0.392258 2.295102 -19.396207 0.000001 0.000000 0.000001 9.533395 0.000015 -0.000003 0.008851 -0.349956 2.901022 0.338473 2.136343 -18.005308 0.799798 3.226060 -27.843106 -0.000001 -0.000002 -0.000003 9.104510 -0.042974 -1.865101 0.084886 1.080328 -8.989817 0.898406 3.405879 -29.547518 1.489266 4.281694 -38.343965 -0.000001 0.000000 0.000000 8.077809 -0.486869 -3.806303 1.634693 6.044388 -18.101180 1.538611 0.256844 -39.189751 2.171661 5.022854 -46.742550 -0.000001 -0.000002 -0.000003 -8.207801 -6.751709 -1.599541 -12.931484 -15.231148 -10.354456 62.431016 -9.775403 2.860807 -15.869152 -4.473373 21.694766 -13.595317 -0.000026 -0.000011 0.000000 0.000001 0.000000 8.207804 -6.751701 -1.599540 -30.750239 1.890646 41.799477 60.041229 10.820351 8.332022 -4.053242 9.140869 -18.412462 -6.176988 0.000003 0.000009 -0.000000 0.000003 -0.000001 
-27.790947 88.389740 -2.917070 -10.310054 12.376972 -11.570623 0.000002 10.181549 0.131524 7.647568 13.578882 1.995041 9.684272 1.964024 1.777039 9.630517 2.007875 1.984734 0.000007 16.740368 -2.049023 -5.905387 -5.622413 5.736515 0.000002 9.617850 1.684973 -16.293611 -22.229991 5.240204 0.000001 22.037384 7.501071 -0.000001 -0.000000 -0.000000 -4.569996 11.014906 -2.160843 1.702998 14.095967 2.927208 -9.977439 23.879690 40.710625 -0.000012 17.406478 0.000015 47.584664 14.496877 -2.000987 -2.464799 -1.573990 2.681906 4.107759 -12.739321 -13.782823 5.339217 -16.446286 -0.762128 -2.646253 -1.527794 1.527809 -0.660613 -6.615920 -2.806302 -1.994602 -1.151585 1.151583 0.000006 -0.000007 0.000001 -9.108296 -0.517876 2.259797 1.389053 -4.174699 36.794280 0.490420 -2.569551 21.607404 0.141957 -1.400635 11.574061 0.000001 0.000002 -0.000001 -9.532500 0.000003 -0.000004 0.826293 -3.292571 28.168610 0.335435 -2.137506 17.834326 0.148849 -1.433854 11.852472 0.000002 -0.000004 -0.000000 -9.103600 -0.043109 -1.865104 0.321800 -2.094689 17.465224 0.178097 -1.566732 12.969763 0.160262 -1.487160 12.300173 -0.000001 -0.000000 -0.000001 -8.076698 -0.486733 -3.806304 0.084559 -1.083262 8.926051 0.087012 -1.098839 9.055428 0.170114 -1.531686 12.674629 0.000001 -0.000001 0.000002 4.570404 11.014684 -2.160817 1.368958 -9.313567 5.212138 19.493850 -34.503148 -5.323876 0.000007 -117.619983 -0.000001 -74.884466 -18.035915 22.977841 2.466114 -1.576219 2.681696 0.946001 22.129089 -3.559445 4.866012 19.509705 1.586049 2.647876 -1.528743 1.528748 0.304762 11.633228 3.489187 1.998913 -1.154096 1.154083 -0.000001 0.000006 0.000005 9.109315 -0.518006 2.259898 0.150310 -1.433637 11.968724 0.070308 0.983633 -8.179255 0.369245 2.228730 -18.813353 0.000002 -0.000000 0.000000 9.533407 -0.000009 -0.000001 0.014234 -0.443393 3.676729 0.294990 1.997667 -16.799576 0.755247 3.140376 -27.040651 -0.000001 -0.000001 0.000000 9.104507 -0.043017 -1.865096 0.047251 0.807048 -6.703201 0.787683 3.203023 -27.626946 1.410016 4.179877 -37.270095 -0.000002 0.000004 -0.000000 8.077800 -0.486918 -3.806301 1.273434 5.710981 -14.574476 1.355225 0.021689 -36.718131 2.059197 4.915020 -45.444230 0.000001 -0.000000 -0.000001 -8.207800 -6.751712 -1.599541 -12.092856 -13.047214 -9.876548 59.222002 -6.218239 1.570439 -14.286328 -4.044528 22.303027 -15.610561 -0.000013 -0.000001 0.000000 -0.000001 0.000000 8.207794 -6.751698 -1.599548 -32.903480 3.191687 41.858818 59.619137 10.953524 8.064139 -3.974303 6.309874 -17.635393 -7.306696 0.000012 -0.000002 -0.000000 -0.000000 -0.000001 
-26.064060 89.151398 -2.769781 -8.857432 14.274015 -11.493494 -0.000000 10.181560 0.131522 6.854313 14.421152 2.069036 9.159036 2.087774 2.107196 9.095173 2.133740 2.316055 0.000000 16.740372 -2.049024 -6.579270 -6.155186 5.541885 0.000002 9.617838 1.684976 -17.143589 -24.707683 3.967128 0.000001 22.037384 7.501072 -0.000001 -0.000000 -0.000000 -4.570001 11.014866 -2.160847 1.742854 13.786494 1.821349 -7.808031 17.307785 39.185355 -0.000004 17.167423 0.000030 48.796804 16.007464 -1.729610 -2.464775 -1.573985 2.681911 4.122993 -12.630014 -13.762432 5.362020 -16.709557 -0.778839 -2.646257 -1.527820 1.527816 -0.632111 -6.952436 -2.840049 -1.994591 -1.151597 1.151573 -0.000002 -0.000007 0.000003 -9.108290 -0.517883 2.259806 1.317661 -4.077769 35.802185 0.577927 -2.780083 23.482190 0.211388 -1.704800 14.136074 0.000001 -0.000000 0.000000 -9.532496 0.000007 0.000000 0.912228 -3.447958 29.630177 0.384722 -2.285022 19.112433 0.188109 -1.609515 13.330466 0.000001 -0.000003 0.000003 -9.103603 -0.043107 -1.865102 0.507356 -2.611864 21.982192 0.193218 -1.630915 13.511170 0.163185 -1.500543 12.412706 0.000003 0.000002 -0.000001 -8.076679 -0.486726 -3.806298 0.266762 -1.911160 15.891089 0.085576 -1.089788 8.980117 0.145618 -1.418387 11.722824 0.000001 -0.000001 0.000001 4.570399 11.014703 -2.160820 1.127998 -7.484190 5.429104 15.270160 -29.974511 -3.336107 0.000005 -126.405969 0.000002 -75.454001 -16.698161 20.040769 2.466100 -1.576211 2.681700 0.881754 21.760047 -3.590645 4.836815 19.120930 1.560202 2.647887 -1.528749 1.528740 0.289087 11.439191 3.472072 1.998913 -1.154094 1.154081 0.000003 0.000002 0.000001 9.109301 -0.518008 2.259892 0.103538 -1.191943 9.927738 0.063929 0.938115 -7.798050 0.353898 2.183193 -18.414641 -0.000001 -0.000001 -0.000000 9.533401 0.000004 0.000000 0.009358 -0.359648 2.981555 0.262577 1.887023 -15.843218 0.719152 3.068734 -26.374040 0.000000 -0.000001 -0.000000 9.104495 -0.043002 -1.865110 0.034420 0.689173 -5.720352 0.695973 3.021634 -25.938169 1.338611 4.084566 -36.279035 0.000001 0.000001 -0.000000 8.077805 -0.486878 -3.806308 1.044887 5.477171 -12.230290 1.196487 -0.200100 -34.458294 1.952923 4.808436 -44.190156 -0.000000 0.000001 -0.000001 -8.207804 -6.751705 -1.599541 -10.733733 -13.314060 -10.505870 55.002216 -1.419390 -0.122083 -12.558158 -3.652346 22.851100 -17.624046 -0.000008 0.000008 0.000000 -0.000001 -0.000000 8.207796 -6.751684 -1.599546 -35.226991 3.534343 40.693646 59.864627 10.901755 8.239237 -2.951391 3.546211 -16.452275 -9.650319 -0.000002 -0.000000 0.000000 -0.000001 -0.000001 
-23.942621 89.884331 -2.618655 -6.889880 17.019897 -11.875044 0.000001 10.181556 0.131526 5.747310 13.856541 2.961796 8.410199 2.015352 2.100488 8.351782 2.040617 2.288412 0.000000 16.740379 -2.049020 -7.064668 -6.608950 5.490479 0.000000 9.617852 1.684978 -17.366441 -26.546693 2.711721 -0.000001 22.037369 7.501073 -0.000000 0.000000 0.000000 -4.570000 11.014904 -2.160839 1.750781 13.551366 1.223385 -5.438561 10.258360 38.252123 -0.000003 17.578554 0.000023 49.987853 17.199238 -1.343167 -2.464800 -1.573993 2.681901 4.149135 -12.441482 -13.727377 5.368219 -16.781442 -0.783369 -2.646268 -1.527824 1.527819 -0.611956 -7.191703 -2.863957 -1.994590 -1.151586 1.151583 0.000001 -0.000001 -0.000000 -9.108312 -0.517874 2.259797 1.297804 -4.050175 35.522140 0.586699 -2.800184 23.662518 0.273199 -1.933632 16.083017 0.000000 -0.000001 0.000002 -9.532507 0.000000 -0.000007 1.046486 -3.673566 31.791822 0.414113 -2.368049 19.836495 0.220466 -1.740367 14.437452 0.000005 -0.000002 0.000001 -9.103586 -0.043100 -1.865111 0.770880 -3.187121 27.188367 0.235224 -1.796673 14.915666 0.164707 -1.507470 12.470754 0.000001 -0.000002 0.000001 -8.076702 -0.486721 -3.806309 0.580606 -2.786300 23.537943 0.125946 -1.320152 10.900223 0.127474 -1.327890 10.964945 0.000001 -0.000000 0.000002 4.570402 11.014666 -2.160811 0.864902 -5.576483 5.970221 10.361591 -23.251583 -3.072004 0.000002 -130.524888 0.000017 -74.405902 -17.260212 12.340712 2.466104 -1.576206 2.681690 0.660016 20.488800 -3.701011 4.735283 17.781537 1.469954 2.647895 -1.528756 1.528753 0.234649 10.770751 3.412837 1.998917 -1.154091 1.154068 0.000000 0.000003 0.000003 9.109297 -0.518019 2.259895 0.046892 -0.803824 6.676248 0.067523 0.963995 -8.014659 0.341818 2.146598 -18.094831 -0.000000 0.000002 -0.000001 9.533407 0.000003 -0.000002 0.001583 -0.147636 1.223367 0.250173 1.842795 -15.462047 0.686789 3.002655 -25.762944 -0.000001 -0.000000 0.000002 9.104496 -0.043000 -1.865105 0.033211 0.676894 -5.618128 0.636795 2.896971 -24.791691 1.270912 3.990904 -35.317617 -0.000000 -0.000001 0.000000 8.077800 -0.486893 -3.806301 0.894227 5.311967 -10.627679 1.079728 -0.375967 -32.709588 1.849794 4.700403 -42.946051 0.000000 -0.000000 0.000003 -8.207798 -6.751708 -1.599541 -8.895100 -14.173361 -11.233799 49.904142 2.591709 -1.016235 -10.497360 -3.377546 24.053059 -19.317127 -0.000006 0.000002 0.000000 -0.000000 0.000000 8.207801 -6.751712 -1.599540 -37.315099 2.179195 38.540237 60.501706 9.709479 8.202445 -1.481407 1.494275 -15.132626 -12.438333 0.000235 -0.149219 0.000000 -0.000002 -0.000000 
